<svg id="add_to_collection" xmlns="http://www.w3.org/2000/svg" width="34" height="34" viewBox="0 0 34 34">
  <g id="Group_11" data-name="Group 11">
    <path id="Path_9" data-name="Path 9" d="M19.013,19.614h1.6v-1.6h1.6v-1.6h-1.6v-1.6h-1.6v1.6h-1.6v1.6h1.6ZM11,22.817a1.606,1.606,0,0,1-1.6-1.6v-9.61A1.608,1.608,0,0,1,11,10h4.805l1.6,1.6h6.407a1.606,1.606,0,0,1,1.6,1.6v8.008a1.605,1.605,0,0,1-1.6,1.6Zm0-11.212v9.61H23.818V13.207H16.75l-1.6-1.6Z" fill="#fff"/>
  </g>
  <circle id="Ellipse_1" data-name="Ellipse 1" cx="16.5" cy="16.5" r="16.5" transform="translate(0.5 0.5)" fill="none" stroke="#fff" stroke-width="1"/>
</svg>
