<svg width="26" height="30" viewBox="0 0 26 30" fill="none" xmlns="http://www.w3.org/2000/svg">
<path d="M8.33086 2.26434C10.7005 3.44914 12.1568 7.75634 12.5887 9.29905C15.1805 1.89409 20.1788 0.783311 22.2152 4.85606C24.2516 8.9288 21.2896 10.2247 19.6235 10.78C17.9573 11.3354 8.88623 11.5205 5.36886 10.78C1.85149 10.0395 2.22174 7.81808 2.22174 6.89246C2.22174 5.96683 5.36886 0.78334 8.33086 2.26434Z" stroke="#6898FF" stroke-width="3"/>
<path d="M0 12.8419C0 11.7374 0.895431 10.8419 2 10.8419H12.5264V17.4735H2C0.895432 17.4735 0 16.5781 0 15.4735V12.8419Z" fill="#6898FF"/>
<path d="M0.736847 20.2105C0.736847 19.1059 1.63228 18.2104 2.73685 18.2104H12.5264V30H2.73685C1.63228 30 0.736847 29.1046 0.736847 28V20.2105Z" fill="#6898FF"/>
<path d="M25.0527 20.2105C25.0527 19.1059 24.1573 18.2104 23.0527 18.2104H13.2632V30H23.0527C24.1573 30 25.0527 29.1046 25.0527 28V20.2105Z" fill="#6898FF"/>
<path d="M25.7896 12.8419C25.7896 11.7374 24.8942 10.8419 23.7896 10.8419H13.2632V17.4735H23.7896C24.8942 17.4735 25.7896 16.5781 25.7896 15.4735V12.8419Z" fill="#6898FF"/>
</svg>
