<svg id="gift_white" xmlns="http://www.w3.org/2000/svg" width="34" height="34" viewBox="0 0 34 34">
  <path id="Path_9" data-name="Path 9" d="M13.825,7.66c1.611.806,2.6,3.735,2.9,4.784,1.762-5.035,5.161-5.791,6.546-3.021s-.629,3.651-1.762,4.028a35.369,35.369,0,0,1-9.693,0c-2.392-.5-2.14-2.014-2.14-2.644S11.811,6.653,13.825,7.66Z" fill="none" stroke="#fff" stroke-width="1"/>
  <path id="Path_10" data-name="Path 10" d="M8.16,15.493a2,2,0,0,1,2-2h6.518V18H10.16a2,2,0,0,1-2-2Z" fill="#fff"/>
  <path id="Path_11" data-name="Path 11" d="M8.661,20.5a2,2,0,0,1,2-2h6.017V26.52H10.661a2,2,0,0,1-2-2Z" fill="#fff"/>
  <path id="Path_12" data-name="Path 12" d="M25.2,20.5a2,2,0,0,0-2-2H17.179V26.52H23.2a2,2,0,0,0,2-2Z" fill="#fff"/>
  <path id="Path_13" data-name="Path 13" d="M25.7,15.493a2,2,0,0,0-2-2H17.179V18H23.7a2,2,0,0,0,2-2Z" fill="#fff"/>
  <circle id="Ellipse_1" data-name="Ellipse 1" cx="16.5" cy="16.5" r="16.5" transform="translate(0.5 0.5)" fill="none" stroke="#fff" stroke-width="1"/>
</svg>
